<?xml version="1.0" encoding="utf-8"?>
<svg viewBox="0 0 500 500" xmlns="http://www.w3.org/2000/svg" xmlns:bx="https://boxy-svg.com">
  <defs>
    <linearGradient id="gradient-1" bx:pinned="true"/>
    <linearGradient gradientUnits="userSpaceOnUse" x1="250" y1="12.728" x2="250" y2="486.923" id="gradient-0" gradientTransform="matrix(0.99999, 0.004568, -0.004486, 0.982057, 0.059702, -0.913534)">
      <stop offset="0" style="stop-color: rgba(0, 149, 255, 0.41);"/>
      <stop offset="1" style="stop-color: rgb(0, 149, 255); stop-opacity: 0.27;"/>
    </linearGradient>
  </defs>
  <path style="stroke: rgb(0, 0, 0); stroke-width: 4px; fill: url(#gradient-0); paint-order: fill;" d="M 102.703 462.765 C 102.703 462.765 68.855 378.67 62.279 287.815 C 56.783 211.894 61.123 127.683 69.543 102.975 C 88.039 48.699 130.151 12.118 187.328 12.736 C 250.803 13.422 290.966 38.404 329.086 111.5 C 354.5 160.233 334.862 262.347 359.244 324.952 C 388.458 399.961 416.443 423.484 416.654 432.816 C 416.803 439.416 410.898 472.044 382.851 474.104 C 356.008 476.075 349.923 431.527 328.109 437.285 C 312.219 441.48 316.213 473.9 300.297 477.996 C 272.12 485.247 277.942 435.91 234.736 447.285 C 217.706 451.769 221.573 487.478 204.685 486.916 C 181.879 486.157 178.87 444.008 158.445 446.185 C 141.982 447.94 144.358 480.123 128.931 486.134 C 116.28 491.064 102.703 462.765 102.703 462.765 Z"/>
  <ellipse style="stroke: rgb(0, 0, 0);" cx="138.608" cy="115.254" rx="15" ry="14.792" transform="matrix(1, 0, -0.168466, 1, 17.848274, 3.413254)" bx:origin="0.5 0.481"/>
  <ellipse style="stroke: rgb(0, 0, 0);" cx="138.608" cy="115.254" rx="15" ry="14.792" transform="matrix(1, 0, -0.168466, 1, 123.745453, 3.413254)" bx:origin="0.5 0.481"/>
  <path style="stroke: rgb(0, 0, 0);" d="M 115.456 188.722 C 115.456 188.722 136.805 188.342 145.901 192.754 C 150.594 195.03 159.908 214.035 159.908 214.035 C 159.908 214.035 169.754 199.797 173.876 198.545 C 176.912 197.623 188.324 202.736 197.821 202.702 C 209.003 202.662 218.432 197.62 221.607 198.391 C 226.058 199.471 237.081 210.948 237.081 210.948 C 237.081 210.948 246.951 192.866 251.28 189.957 C 256.282 186.595 282.149 178.844 282.149 178.844 C 282.149 178.844 255.888 227.21 231.524 240.133 C 220.636 245.908 206.663 244.456 192.82 244.268 C 180.955 244.106 169.185 245.976 159.533 241.684 C 136.245 231.328 115.456 188.722 115.456 188.722 Z"/>
</svg>